{"glyphs":{"A":{"ha":992,"x_min":0,"x_max":0,"o":"m 265 958 b 467 888 265 958 467 956 l 203 182 b 35 15 164 76 118 15 l 35 0 l 375 0 l 375 15 b 253 196 232 15 206 72 l 311 349 l 657 349 l 711 194 b 601 15 758 60 715 15 l 601 0 l 957 0 l 957 15 b 831 99 879 15 847 50 l 568 874 b 761 958 542 951 761 958 l 761 972 l 265 972 z m 635 408 l 332 408 l 492 844 z "},"B":{"ha":825,"x_min":0,"x_max":0,"o":"m 769 264 b 439 510 769 488 557 510 b 715 733 582 510 715 604 b 335 972 715 933 526 972 l 35 972 l 35 957 b 157 851 135 957 157 908 l 157 129 b 35 15 157 51 135 15 l 35 0 l 365 0 b 769 264 554 0 769 31 z m 246 868 b 306 935 246 908 261 935 l 338 935 b 619 733 486 935 619 907 b 356 519 619 613 575 519 l 290 519 l 290 497 l 379 497 b 675 263 531 497 675 431 b 381 33 675 58 489 35 b 246 129 279 33 246 46 z "},"C":{"ha":974,"x_min":0,"x_max":0,"o":"m 563 981 b 56 490 349 981 56 849 b 569 -12 56 156 311 -12 b 932 92 807 -12 932 92 l 919 115 b 601 43 919 115 813 43 b 157 546 399 43 157 160 b 553 949 157 856 414 949 b 901 600 863 949 904 606 b 925 607 901 600 925 607 l 875 917 b 563 981 875 917 751 981 z "},"D":{"ha":1001,"x_min":0,"x_max":0,"o":"m 442 0 b 946 496 719 0 946 128 b 358 971 946 863 700 969 l 42 972 l 42 957 b 164 832 142 957 164 889 l 164 156 b 42 15 164 64 142 15 l 42 0 z m 393 932 b 844 492 592 932 844 858 b 386 32 844 149 693 32 b 254 154 290 32 254 53 l 253 932 l 321 932 z "},"E":{"ha":851,"x_min":0,"x_max":0,"o":"m 282 928 l 539 928 b 772 693 746 928 772 693 l 789 694 l 733 972 l 56 972 l 56 956 b 199 826 126 956 199 940 l 197 121 b 56 15 197 19 117 15 l 56 0 b 585 -6 56 0 413 -6 b 796 185 775 -6 794 167 l 788 189 b 621 71 764 154 715 104 b 285 28 546 44 493 28 l 282 458 l 506 458 b 635 299 636 458 635 388 l 653 299 l 653 675 l 636 675 b 506 508 636 582 638 508 l 282 508 z "},"F":{"ha":786,"x_min":0,"x_max":0,"o":"m 238 932 l 508 932 b 728 694 697 932 728 694 l 744 696 l 689 974 l 56 974 l 56 958 b 153 828 126 958 153 926 l 153 121 b 56 15 153 61 118 15 l 56 0 l 401 0 l 401 14 l 239 49 l 238 458 l 490 458 b 592 300 593 458 592 371 l 608 300 l 608 676 l 590 676 b 490 510 590 594 593 510 l 238 510 z "},"G":{"ha":983,"x_min":0,"x_max":0,"o":"m 851 381 l 851 125 b 574 38 807 85 703 38 b 140 540 372 38 140 172 b 531 947 140 850 404 947 b 904 603 835 947 904 685 l 925 604 l 881 915 b 553 981 881 915 742 981 b 42 489 340 981 42 869 b 554 -14 42 156 308 -14 b 942 161 792 -14 942 161 l 942 165 b 890 372 942 165 890 304 b 932 446 890 433 932 446 l 929 453 l 571 453 l 571 431 z "},"H":{"ha":1089,"x_min":0,"x_max":0,"o":"m 1040 0 l 1039 17 b 910 129 939 17 910 50 l 910 807 b 1036 954 910 894 942 954 l 1036 971 l 660 971 l 660 954 b 835 808 768 954 835 931 l 835 525 l 257 525 l 257 818 b 432 954 257 932 325 954 l 432 971 l 49 971 l 50 953 b 179 840 151 953 179 919 l 179 163 b 54 17 179 75 147 17 l 54 0 l 432 0 l 432 17 b 257 161 324 17 257 39 l 257 467 l 835 467 l 835 161 b 660 17 835 39 768 17 l 660 0 z "},"I":{"ha":531,"x_min":0,"x_max":0,"o":"m 308 828 b 433 958 308 946 376 958 l 433 972 l 97 972 l 97 958 b 226 828 151 958 226 946 l 226 144 b 97 14 226 28 151 14 l 97 0 l 433 0 l 433 14 b 308 136 378 14 308 26 z "},"J":{"ha":518,"x_min":0,"x_max":0,"o":"m 217 13 b 42 -294 215 -250 146 -257 l 46 -307 b 306 13 186 -265 306 -240 l 306 822 b 435 957 306 943 376 957 l 435 971 l 88 971 l 88 957 b 221 822 143 957 221 943 z "},"K":{"ha":975,"x_min":0,"x_max":0,"o":"m 696 64 b 933 -3 783 -22 928 -6 l 933 13 b 803 75 931 11 865 8 l 414 485 l 714 853 b 894 954 804 964 894 954 l 894 974 l 564 974 l 565 957 b 636 846 638 957 719 947 l 350 494 l 263 494 l 263 819 b 421 957 263 935 315 957 l 421 974 l 49 974 l 50 957 b 181 843 151 957 181 922 l 181 161 b 54 14 181 74 147 14 l 54 -3 l 421 -3 l 421 14 b 263 160 313 14 263 38 l 263 468 b 426 346 329 468 379 396 b 696 64 532 233 635 124 z "},"L":{"ha":781,"x_min":0,"x_max":0,"o":"m 69 957 b 167 828 151 957 167 899 l 165 121 b 69 15 165 60 132 15 l 69 0 b 535 -6 69 0 361 -6 b 746 185 725 -6 743 167 l 738 189 b 581 76 713 153 678 107 b 253 31 506 53 463 31 l 253 828 b 413 957 253 931 326 957 l 413 974 l 69 974 z "},"M":{"ha":1361,"x_min":0,"x_max":0,"o":"m 1151 832 b 1278 956 1146 925 1219 956 l 1276 972 l 903 972 l 904 954 b 1017 883 957 954 1040 936 l 685 149 l 371 883 b 488 956 349 935 425 956 l 486 972 l 75 972 l 76 954 b 243 807 176 954 253 903 l 175 161 b 49 15 165 74 143 15 l 49 -1 l 413 -1 l 413 15 b 225 183 272 15 210 38 l 292 842 l 661 -12 l 667 -12 l 1065 863 l 1111 188 b 935 15 1121 39 1076 15 l 935 -1 l 1313 -1 l 1313 15 b 1190 138 1218 15 1196 42 z "},"N":{"ha":1136,"x_min":0,"x_max":0,"o":"m 263 974 l 42 974 l 43 956 b 213 876 104 956 190 918 l 213 179 b 85 17 213 92 179 17 l 85 0 l 464 0 l 464 17 b 263 178 339 17 261 47 l 267 826 l 974 -43 l 983 -42 l 981 800 b 1094 957 981 868 986 957 l 1094 974 l 714 974 l 714 957 b 929 797 878 957 929 879 l 931 151 z "},"O":{"ha":1099,"x_min":0,"x_max":0,"o":"m 542 982 b 63 489 263 982 63 776 b 544 -8 63 208 247 -8 b 1036 488 839 -8 1036 197 b 542 982 1036 703 901 982 z m 531 947 b 936 464 776 947 936 728 b 565 28 936 247 836 28 b 157 522 269 28 157 304 b 531 947 157 738 271 947 z "},"P":{"ha":800,"x_min":0,"x_max":0,"o":"m 268 882 b 319 933 268 922 288 933 l 361 933 b 631 732 518 933 631 881 b 311 454 631 569 521 454 l 303 432 b 731 728 668 432 731 597 b 357 971 731 933 550 971 l 56 971 l 56 956 b 178 850 156 956 178 907 l 178 138 b 56 15 178 60 156 15 l 56 0 l 456 0 l 456 19 l 268 46 z "},"Q":{"ha":1138,"x_min":0,"x_max":0,"o":"m 1076 471 b 567 981 1076 783 867 981 b 56 479 264 981 56 792 b 438 -31 56 215 211 40 b 1128 -203 543 -65 810 -203 b 1374 -165 1253 -203 1371 -165 b 1365 -144 1376 -165 1365 -144 b 1128 -160 1365 -144 1246 -160 b 661 -29 901 -160 661 -29 b 1076 471 906 7 1076 178 z m 539 942 b 975 447 818 942 975 758 b 575 3 975 226 853 3 b 157 508 253 3 157 268 b 539 942 157 715 274 942 z "},"R":{"ha":926,"x_min":0,"x_max":0,"o":"m 989 -137 b 846 3 989 -137 936 -124 b 549 438 776 99 624 411 b 772 703 549 438 772 465 b 357 971 772 943 551 971 l 56 971 l 56 956 b 179 847 157 956 179 906 l 179 132 b 56 15 179 53 157 15 l 56 0 l 460 0 l 460 17 b 269 131 329 17 269 24 l 269 865 b 325 932 269 921 282 932 l 360 932 b 675 699 519 932 675 897 b 453 440 675 497 542 440 l 313 440 l 313 418 l 371 418 b 529 346 467 418 482 407 b 763 -1 611 236 719 67 b 988 -150 808 -75 892 -150 z "},"S":{"ha":725,"x_min":0,"x_max":0,"o":"m 375 981 b 86 756 303 981 86 968 b 567 206 86 497 567 446 b 385 17 567 94 482 17 b 97 288 138 17 97 288 l 83 286 l 90 24 b 376 -12 92 22 231 -12 b 656 233 483 -12 656 17 b 175 768 656 486 175 565 b 363 951 175 896 281 951 b 596 707 543 951 596 707 l 608 711 l 583 961 b 375 981 581 960 482 981 z "},"T":{"ha":897,"x_min":0,"x_max":0,"o":"m 35 692 l 51 686 b 253 936 51 689 99 936 l 340 936 b 401 878 388 936 401 926 l 401 138 b 228 19 401 14 228 19 l 228 0 b 671 0 228 0 671 0 l 671 19 b 489 136 671 19 489 11 l 489 878 b 549 935 489 925 499 935 l 635 935 b 843 689 822 935 843 689 b 863 694 843 689 863 694 l 808 972 l 90 972 z "},"U":{"ha":1074,"x_min":0,"x_max":0,"o":"m 882 829 b 1018 953 882 907 910 953 l 1018 972 l 635 972 l 635 953 b 836 774 789 953 836 936 l 836 368 b 551 31 836 72 693 31 b 265 339 396 31 265 97 l 265 776 b 449 953 265 936 272 953 l 449 972 l 56 972 l 56 957 b 178 833 156 957 178 919 l 178 153 b 549 -17 178 153 296 -17 b 882 153 776 -17 882 153 z "},"V":{"ha":1033,"x_min":0,"x_max":0,"o":"m 233 857 b 385 956 206 929 299 956 l 385 972 l 28 972 l 28 953 b 128 882 28 953 99 958 l 472 -32 l 496 -32 l 897 869 b 1006 957 935 957 1006 957 l 1006 972 l 681 972 l 681 957 b 829 853 808 957 864 932 l 510 118 z "},"W":{"ha":1390,"x_min":0,"x_max":0,"o":"m 228 889 b 343 958 207 946 263 958 l 343 972 l 28 972 l 28 957 b 128 879 28 957 99 958 l 472 -32 l 494 -32 l 693 424 l 879 -32 l 896 -32 l 1254 867 b 1363 960 1290 958 1363 958 l 1363 972 l 1072 972 l 1072 957 b 1197 865 1200 957 1224 935 l 913 136 l 754 532 l 893 867 b 1003 960 931 958 1003 960 l 1003 972 l 738 972 l 738 957 b 836 865 865 957 860 921 l 725 599 l 613 889 b 685 958 600 921 613 958 l 685 972 l 413 972 l 413 958 b 514 879 413 958 483 958 l 665 490 l 510 126 z "},"X":{"ha":1000,"x_min":0,"x_max":0,"o":"m 614 200 b 574 17 708 39 681 17 l 574 0 l 958 0 l 958 17 b 768 124 956 17 833 17 l 536 504 l 764 868 b 935 957 811 943 935 957 l 935 971 l 547 971 l 547 957 b 703 865 675 957 753 949 l 511 544 l 319 863 b 457 957 269 946 347 956 l 457 971 l 42 971 l 42 957 b 203 875 42 957 144 946 b 453 471 204 872 456 472 l 249 135 b 53 17 193 43 117 17 l 53 0 l 424 0 l 424 17 b 335 199 326 17 238 39 l 478 431 z "},"Y":{"ha":958,"x_min":0,"x_max":0,"o":"m 435 150 b 286 17 435 28 394 17 l 286 0 l 674 0 l 674 17 b 525 150 565 17 525 28 l 525 453 l 751 869 b 924 958 794 947 924 958 l 924 972 l 536 972 l 536 958 b 692 867 663 958 735 951 l 508 506 l 304 864 b 442 957 256 950 332 957 l 442 972 l 35 972 l 35 957 b 196 876 35 957 151 956 l 435 453 z "},"Z":{"ha":881,"x_min":0,"x_max":0,"o":"m 104 688 b 382 922 144 861 211 914 l 696 938 l 49 0 l 758 0 l 825 322 l 806 322 b 513 51 758 119 704 60 l 176 36 l 832 972 l 140 972 l 83 688 z "},"a":{"ha":672,"x_min":0,"x_max":0,"o":"m 83 431 b 268 663 88 483 156 663 b 431 468 379 663 431 531 b 219 318 431 389 300 350 b 63 158 131 283 63 261 b 236 -7 63 99 131 -7 b 426 71 335 -7 426 71 l 422 -19 l 644 13 l 642 25 b 508 154 642 25 508 11 l 515 365 b 275 696 518 440 536 696 b 67 617 124 696 67 617 l 67 431 z m 426 103 b 294 47 426 101 346 47 b 150 178 225 47 150 122 b 264 286 150 238 213 265 b 432 360 365 328 432 360 z "},"b":{"ha":785,"x_min":0,"x_max":0,"o":"m 474 703 b 263 568 326 703 263 569 l 264 1122 l 28 1004 b 39 989 29 1004 39 989 b 176 906 124 1026 176 1051 l 174 108 b 94 15 174 42 133 15 l 94 1 l 393 0 b 729 357 601 0 729 140 b 474 703 729 564 607 703 z m 388 39 b 254 175 281 39 254 68 l 254 374 b 433 633 254 540 326 633 b 644 342 569 633 644 486 b 388 39 644 256 619 39 z "},"c":{"ha":683,"x_min":0,"x_max":0,"o":"m 397 699 b 56 331 265 699 56 615 b 383 -12 56 79 221 -12 b 635 149 546 -12 635 149 l 618 157 b 396 40 618 157 547 40 b 151 365 290 40 151 124 b 367 665 151 565 271 665 b 590 429 579 665 590 429 b 607 429 590 429 607 429 l 604 651 b 397 699 604 651 529 699 z "},"d":{"ha":818,"x_min":0,"x_max":0,"o":"m 643 1129 l 383 1008 b 394 993 385 1008 394 993 b 560 913 467 1022 560 1058 l 558 667 b 378 700 558 667 493 700 b 63 325 258 700 63 617 b 331 -11 63 61 246 -11 b 557 107 467 -11 556 101 l 557 -15 l 776 13 l 776 28 b 643 214 646 22 643 46 z m 558 158 b 385 56 558 158 492 56 b 153 346 229 56 153 188 b 379 661 153 449 188 661 b 558 460 479 661 558 586 z "},"e":{"ha":703,"x_min":0,"x_max":0,"o":"m 629 440 b 371 700 629 440 615 700 b 69 338 135 700 69 475 b 375 -14 69 160 175 -14 b 633 142 589 -14 633 142 l 621 151 b 415 47 621 151 568 47 b 164 440 221 47 136 233 b 629 440 176 442 629 440 z m 369 658 b 528 538 488 658 528 578 b 464 489 528 517 514 489 l 174 489 b 369 658 174 489 215 658 z "},"f":{"ha":593,"x_min":0,"x_max":0,"o":"m 551 1074 b 433 1115 551 1074 511 1115 b 161 697 250 1115 161 940 l 81 697 l 56 631 b 161 644 82 636 118 644 l 161 176 b 63 14 160 58 149 14 l 63 0 l 394 0 l 394 14 b 247 176 258 14 247 51 l 247 644 l 429 644 l 457 706 b 308 696 399 699 360 696 b 247 778 250 696 247 722 b 390 1071 247 850 276 1071 b 533 849 511 1071 535 849 l 550 847 b 551 1074 550 851 553 1074 z m 550 847 b 550 847 550 847 550 847 z "},"g":{"ha":757,"x_min":0,"x_max":0,"o":"m 482 72 b 181 156 225 122 181 128 b 261 229 181 197 261 229 b 321 222 261 229 289 222 b 597 481 499 222 597 342 b 515 640 597 576 518 639 l 653 640 b 722 735 653 640 722 735 l 713 742 b 514 696 711 740 696 694 l 389 697 b 88 443 218 697 88 626 b 222 246 88 299 221 247 b 97 121 156 210 97 167 b 249 47 97 75 249 47 b 49 -136 117 6 49 -56 b 385 -310 49 -224 231 -310 b 722 -44 581 -310 722 -126 b 482 72 722 15 604 49 z m 163 482 b 317 654 163 583 208 654 b 519 443 451 654 519 519 b 383 272 519 333 486 272 b 163 482 260 272 163 372 z m 428 -242 b 119 -97 332 -242 119 -175 b 319 19 119 -26 213 19 b 658 -114 510 19 658 -35 b 428 -242 658 -168 546 -242 z "},"h":{"ha":857,"x_min":0,"x_max":0,"o":"m 713 190 l 714 467 b 521 700 714 533 701 700 b 275 401 318 700 275 465 l 274 1122 b 35 1006 274 1122 40 1007 b 42 989 36 1004 42 989 b 186 953 42 989 186 1067 l 186 106 b 65 17 186 64 186 17 l 65 0 l 414 0 l 414 14 l 275 49 l 274 178 b 499 633 271 444 354 633 b 628 386 625 633 628 493 l 628 190 b 492 14 629 69 629 14 l 492 0 l 822 0 l 822 14 b 713 190 708 14 714 65 z m 35 1006 b 35 1006 35 1006 35 1006 z "},"i":{"ha":424,"x_min":0,"x_max":0,"o":"m 128 983 b 197 914 128 967 178 914 b 267 983 221 914 267 967 b 197 1056 267 999 219 1056 b 128 983 178 1056 128 999 z m 56 633 l 63 619 b 174 544 63 619 174 664 l 174 136 b 65 14 174 58 171 14 l 65 0 l 368 0 l 368 14 b 260 136 261 14 260 58 l 260 707 z "},"j":{"ha":424,"x_min":0,"x_max":0,"o":"m 143 983 b 213 914 143 967 193 914 b 282 983 236 914 282 967 b 213 1056 282 999 235 1056 b 143 983 193 1056 143 999 z m 208 108 b 140 -289 206 -187 185 -262 b 0 -314 103 -311 0 -243 b 43 -361 0 -339 4 -361 b 179 -297 93 -361 142 -324 b 297 108 288 -224 297 -114 l 299 694 l 299 704 l 71 629 l 71 617 b 213 476 158 633 213 608 z "},"k":{"ha":768,"x_min":0,"x_max":0,"o":"m 747 0 l 746 14 b 603 76 671 15 635 40 l 356 407 l 551 610 b 692 681 621 682 692 681 l 692 696 l 372 696 l 372 681 l 535 639 l 296 463 l 244 463 b 243 1122 243 767 243 1122 b 39 1033 243 1122 42 1033 l 40 1021 b 154 974 40 1021 154 1068 l 156 126 b 28 17 156 69 147 17 l 28 0 l 371 0 l 371 14 b 244 124 246 14 244 68 l 244 407 b 546 0 344 303 546 0 z m 39 1033 b 39 1033 39 1033 39 1033 z "},"l":{"ha":439,"x_min":0,"x_max":0,"o":"m 179 164 b 49 17 179 31 146 17 l 49 0 l 390 0 l 390 17 b 264 164 290 17 264 28 l 264 1122 l 61 1035 l 63 1022 b 176 978 63 1022 176 1068 z "},"m":{"ha":1275,"x_min":0,"x_max":0,"o":"m 31 589 b 164 531 31 589 164 638 l 164 121 b 28 14 164 8 64 14 l 28 0 l 390 0 l 390 14 b 250 119 257 14 250 71 l 250 379 b 443 633 250 540 306 633 b 606 469 593 633 606 511 l 608 104 b 476 14 608 14 521 14 l 476 0 l 844 0 l 844 14 b 693 101 799 14 693 7 b 690 485 693 101 690 376 b 686 535 690 503 689 519 b 890 632 725 574 786 632 b 1035 482 1042 632 1035 482 l 1035 104 b 906 14 1035 10 946 14 l 906 0 l 1247 0 l 1247 14 b 1124 103 1217 14 1124 8 b 1121 499 1124 103 1121 390 b 892 701 1121 608 1061 701 b 682 560 785 701 707 604 b 463 701 660 643 588 701 b 250 539 315 701 268 590 l 250 703 l 31 606 z "},"n":{"ha":851,"x_min":0,"x_max":0,"o":"m 28 575 b 158 540 28 575 157 629 l 163 121 b 31 14 164 0 31 14 l 31 0 l 371 0 l 371 14 b 244 113 371 14 244 14 l 243 340 b 458 631 242 540 324 631 b 610 468 624 631 610 468 l 610 121 b 508 14 610 7 508 14 l 508 0 l 824 0 l 824 14 b 700 117 824 14 700 0 b 697 482 700 117 697 374 b 460 700 697 590 643 700 b 244 525 290 700 244 525 l 244 688 l 28 592 z "},"o":{"ha":801,"x_min":0,"x_max":0,"o":"m 401 697 b 63 347 182 697 63 525 b 403 -7 63 121 217 -7 b 739 350 589 -7 739 121 b 401 697 739 522 608 697 z m 360 656 b 639 318 585 656 639 485 b 446 32 639 185 594 32 b 158 382 249 32 158 176 b 360 656 158 561 261 656 z "},"p":{"ha":860,"x_min":0,"x_max":0,"o":"m 29 589 b 157 531 29 589 157 647 l 157 -201 b 57 -331 157 -287 157 -331 l 56 -347 l 467 -347 l 467 -331 l 251 -292 l 250 7 b 396 -18 250 7 306 -18 b 790 379 611 -18 790 144 b 481 703 790 543 703 703 b 250 607 356 703 250 607 l 250 703 l 28 607 z m 250 556 b 435 646 250 556 317 646 b 693 347 619 646 693 514 b 449 28 693 228 642 28 b 250 303 315 28 250 114 z "},"q":{"ha":810,"x_min":0,"x_max":0,"o":"m 574 638 b 371 700 547 663 501 700 b 69 344 194 700 69 540 b 351 -7 69 125 200 -7 b 572 110 469 -7 538 60 l 572 -290 l 343 -332 l 343 -349 l 768 -349 l 767 -332 l 667 -290 l 667 700 l 651 700 l 574 639 z m 371 665 b 574 385 536 665 575 528 l 572 156 b 368 63 543 114 485 63 b 163 344 219 63 163 238 b 371 665 163 483 207 665 z "},"r":{"ha":607,"x_min":0,"x_max":0,"o":"m 56 678 b 167 569 56 678 167 681 l 167 117 b 60 14 167 14 60 14 l 60 0 l 422 0 l 422 14 l 257 49 l 257 579 b 379 633 289 608 328 633 b 525 458 522 633 525 458 l 539 457 l 544 640 b 376 700 544 640 501 700 b 257 610 346 700 297 653 b 258 694 257 642 258 694 l 56 694 z "},"s":{"ha":572,"x_min":0,"x_max":0,"o":"m 243 699 b 57 554 207 699 57 696 b 432 156 57 314 432 353 b 282 24 432 54 354 24 b 71 168 186 24 114 101 b 56 167 71 168 56 167 l 68 13 b 278 -10 69 13 169 -10 b 517 181 344 -10 517 7 b 142 561 517 407 142 392 b 240 669 142 642 192 669 b 469 519 393 669 469 519 b 482 526 469 519 482 526 l 444 679 b 243 699 443 679 338 699 z "},"t":{"ha":511,"x_min":0,"x_max":0,"o":"m 151 626 l 124 207 b 276 -14 118 125 129 -14 b 483 94 371 -14 483 94 l 474 111 b 321 53 474 111 392 53 b 215 219 229 53 215 114 l 215 628 l 433 628 l 478 694 l 214 694 l 214 850 l 196 850 b 83 658 193 842 90 667 l 90 626 z "},"u":{"ha":794,"x_min":0,"x_max":0,"o":"m 760 14 b 657 194 676 14 657 57 l 656 703 l 417 633 l 417 617 b 572 543 468 625 572 663 l 574 188 b 326 58 543 160 440 58 b 222 228 232 58 222 129 l 222 703 l 35 633 l 35 618 b 135 560 83 628 135 640 l 135 221 b 300 -10 135 69 176 -10 b 574 149 410 -10 518 92 l 572 0 l 760 0 z "},"v":{"ha":786,"x_min":0,"x_max":0,"o":"m 244 588 b 353 679 213 679 257 679 l 353 694 l 28 694 l 28 679 b 147 583 63 679 113 679 l 360 0 l 396 0 l 635 581 b 758 679 672 672 707 679 l 758 694 l 493 694 l 493 679 b 597 592 568 679 629 672 l 407 118 z "},"w":{"ha":1092,"x_min":0,"x_max":0,"o":"m 599 606 b 690 679 581 665 621 679 l 690 694 l 397 694 l 397 679 b 496 632 433 678 481 672 l 529 536 l 378 124 l 233 603 b 332 679 211 678 269 679 l 332 694 l 28 694 l 28 679 b 142 590 44 679 113 679 l 332 0 l 368 0 l 550 476 l 701 0 l 738 0 l 947 590 b 1064 679 979 679 1014 679 l 1064 694 l 799 694 l 799 679 b 908 606 885 679 932 675 l 744 136 z "},"x":{"ha":754,"x_min":0,"x_max":0,"o":"m 507 88 b 450 14 544 25 518 14 l 450 0 l 726 0 l 726 14 b 618 71 665 14 636 43 l 421 378 l 582 629 b 701 678 582 629 608 678 l 701 694 l 426 694 l 426 678 b 522 608 521 678 553 657 l 396 411 l 264 624 b 353 679 236 669 268 679 l 353 694 l 40 694 l 42 679 b 154 631 124 679 154 631 l 346 343 l 169 81 b 28 14 140 36 100 14 l 28 0 l 303 0 l 303 14 b 229 97 207 14 185 31 l 371 313 z "},"y":{"ha":750,"x_min":0,"x_max":0,"o":"m 301 -97 b 44 -331 217 -276 161 -331 l 44 -347 l 199 -347 b 314 -235 271 -347 293 -290 l 628 596 b 743 679 651 657 665 679 l 743 694 l 488 694 l 488 679 b 554 597 554 679 575 661 l 396 107 l 217 597 b 297 679 192 664 219 679 l 297 694 l 7 694 l 7 679 b 124 594 65 679 99 661 l 350 6 z "},"z":{"ha":646,"x_min":0,"x_max":0,"o":"m 78 499 b 271 653 78 499 115 643 l 479 665 l 42 0 l 553 0 l 594 221 l 581 221 b 401 44 581 221 542 54 l 165 29 l 604 694 l 106 694 l 64 499 z "},"—":{"ha":1019,"x_min":0,"x_max":0,"o":"m 943 314 l 943 381 l 74 381 l 74 314 z "}}}
